<svg aria-hidden="true" style="position: absolute; width: 0; height: 0; overflow: hidden;" version="1.1" xmlns="http://www.w3.org/2000/svg" xmlns:xlink="http://www.w3.org/1999/xlink">
    <defs>
        <symbol id="icon-Arrow-1" viewBox="0 0 32 32">
            <path d="M0.944 17.257c-0.694-0.694-0.694-1.82 0-2.514l11.314-11.314c0.694-0.694 1.82-0.694 2.514 0s0.694 1.82 0 2.514l-10.057 10.057 10.057 10.057c0.694 0.694 0.694 1.82 0 2.514s-1.82 0.694-2.514 0l-11.314-11.314zM32 17.778h-29.799v-3.556h29.799v3.556z"></path>
        </symbol>
        <symbol id="icon-atom" viewBox="0 0 32 32">
            <path d="M16.061 1.4c-1.050 0-2.031 0.478-2.867 1.261s-1.551 1.874-2.148 3.195c-0.125 0.277-0.244 0.564-0.359 0.861-0.308-0.049-0.617-0.089-0.927-0.12-0.361-0.036-0.712-0.058-1.054-0.066-1.026-0.024-1.964 0.080-2.786 0.329-1.096 0.332-2 0.943-2.525 1.852s-0.601 1.998-0.341 3.113c0.26 1.115 0.847 2.28 1.693 3.457 0.178 0.247 0.367 0.494 0.567 0.742-0.196 0.242-0.385 0.489-0.566 0.741-0.846 1.177-1.433 2.342-1.693 3.457s-0.184 2.204 0.341 3.113c0.525 0.909 1.429 1.52 2.525 1.852s2.398 0.407 3.841 0.263c0.302-0.030 0.611-0.071 0.926-0.12 0.112 0.291 0.231 0.579 0.359 0.863 0.596 1.321 1.312 2.412 2.148 3.195s1.817 1.261 2.867 1.261c1.050 0 2.031-0.478 2.866-1.261s1.551-1.874 2.148-3.195c0.128-0.284 0.248-0.572 0.359-0.862 0.314 0.049 0.623 0.090 0.925 0.12 1.442 0.144 2.745 0.070 3.841-0.263s2.001-0.943 2.526-1.852c0.525-0.909 0.601-1.998 0.341-3.113s-0.847-2.28-1.693-3.457c-0.182-0.252-0.371-0.5-0.567-0.741 0.196-0.242 0.385-0.489 0.567-0.742 0.846-1.177 1.433-2.342 1.693-3.457s0.184-2.204-0.341-3.113c-0.525-0.909-1.429-1.52-2.525-1.852-0.822-0.249-1.76-0.353-2.786-0.329-0.342 0.008-0.694 0.030-1.055 0.066-0.302 0.030-0.612 0.071-0.926 0.12-0.111-0.29-0.231-0.577-0.359-0.861-0.596-1.321-1.312-2.412-2.148-3.195s-1.817-1.261-2.866-1.261l0 0zM16.061 2.568c0.7 0 1.387 0.308 2.068 0.946s1.331 1.603 1.882 2.823c0.090 0.199 0.175 0.4 0.255 0.603-1.339 0.298-2.756 0.754-4.205 1.364-1.449-0.61-2.866-1.066-4.205-1.364 0.083-0.207 0.167-0.409 0.255-0.603 0.551-1.22 1.201-2.185 1.882-2.823s1.368-0.946 2.068-0.946l-0 0zM8.337 7.696c0.113-0.001 0.227-0 0.344 0.002 0.31 0.007 0.632 0.027 0.965 0.060 0.213 0.021 0.43 0.048 0.652 0.080-0.412 1.308-0.725 2.764-0.921 4.324-1.253 0.95-2.357 1.95-3.284 2.96-0.136-0.172-0.268-0.346-0.395-0.524-0.781-1.087-1.292-2.133-1.504-3.041s-0.135-1.657 0.215-2.264c0.35-0.607 0.96-1.047 1.853-1.318 0.586-0.178 1.287-0.273 2.077-0.281l0 0zM23.785 7.696c0.789 0.007 1.491 0.103 2.077 0.281 0.893 0.271 1.503 0.711 1.853 1.318s0.427 1.355 0.215 2.264c-0.212 0.909-0.723 1.954-1.504 3.041-0.128 0.177-0.26 0.352-0.395 0.524-0.927-1.010-2.031-2.010-3.284-2.96-0.196-1.56-0.51-3.016-0.922-4.324 0.221-0.032 0.438-0.059 0.651-0.080 0.321-0.033 0.643-0.053 0.965-0.060 0.114-0.003 0.229-0.003 0.344-0.002v0zM20.665 8.049c0.311 0.965 0.568 2.029 0.76 3.169-0.62-0.419-1.255-0.816-1.903-1.19s-1.308-0.725-1.981-1.053c1.082-0.403 2.133-0.713 3.124-0.926v-0zM11.457 8.049c0.991 0.213 2.041 0.523 3.123 0.926-0.672 0.327-1.333 0.679-1.981 1.053s-1.282 0.77-1.902 1.189c0.192-1.139 0.449-2.203 0.76-3.168zM16.061 9.578c0.95 0.419 1.915 0.906 2.877 1.462s1.867 1.147 2.705 1.761c0.112 1.033 0.173 2.112 0.173 3.223s-0.060 2.189-0.172 3.222c-0.838 0.614-1.743 1.205-2.705 1.761s-1.927 1.043-2.877 1.462c-0.951-0.419-1.916-0.907-2.878-1.462s-1.866-1.147-2.704-1.76c-0.112-1.033-0.173-2.112-0.173-3.222s0.060-2.191 0.173-3.224c0.838-0.614 1.743-1.205 2.705-1.761s1.926-1.043 2.877-1.462v-0zM16.14 11.335l-3.344 2.064 3.344 2.064 3.344-2.064-3.344-2.064zM9.217 13.781c-0.053 0.746-0.079 1.494-0.079 2.243 0 0.762 0.027 1.511 0.079 2.241-0.891-0.736-1.684-1.491-2.364-2.242 0.68-0.751 1.473-1.506 2.364-2.242zM22.905 13.781c0.89 0.736 1.683 1.49 2.363 2.242-0.68 0.751-1.473 1.506-2.363 2.242 0.052-0.746 0.079-1.493 0.078-2.241 0-0.763-0.027-1.511-0.079-2.242h0zM12.043 14.306v4.075l3.512 2.167v-4.075l-3.512-2.168zM20.234 14.308l-3.511 2.167v4.073l3.511-2.167v-4.073h-0zM6.091 16.923c0.927 1.011 2.031 2.010 3.284 2.96 0.196 1.56 0.51 3.016 0.921 4.323-0.221 0.032-0.438 0.059-0.65 0.080-1.331 0.133-2.493 0.053-3.386-0.218s-1.502-0.712-1.853-1.318c-0.35-0.607-0.427-1.355-0.215-2.264s0.723-1.954 1.504-3.041c0.128-0.177 0.259-0.352 0.395-0.523zM26.030 16.923c0.138 0.175 0.27 0.349 0.395 0.523 0.781 1.087 1.292 2.133 1.504 3.041s0.135 1.657-0.215 2.264c-0.35 0.606-0.96 1.047-1.853 1.318s-2.054 0.351-3.386 0.218c-0.217-0.022-0.434-0.049-0.65-0.080 0.412-1.308 0.725-2.764 0.921-4.324 1.252-0.95 2.357-1.949 3.283-2.959v0zM21.425 20.828c-0.192 1.139-0.449 2.204-0.76 3.169-0.991-0.213-2.041-0.523-3.124-0.926 0.673-0.328 1.333-0.679 1.981-1.053s1.283-0.771 1.903-1.189h-0zM10.698 20.829c0.62 0.418 1.254 0.815 1.902 1.189s1.309 0.725 1.981 1.053c-1.082 0.403-2.132 0.713-3.123 0.926-0.311-0.965-0.568-2.029-0.759-3.168zM16.096 20.882l0.043 0.026 0.042-0.026h-0.085zM16.061 23.743c1.449 0.61 2.867 1.067 4.206 1.364-0.081 0.203-0.166 0.405-0.256 0.604-0.551 1.22-1.201 2.185-1.882 2.823s-1.368 0.946-2.068 0.946c-0.7 0-1.387-0.308-2.068-0.946s-1.331-1.603-1.882-2.823c-0.090-0.2-0.175-0.401-0.256-0.604 1.339-0.298 2.756-0.754 4.205-1.364h-0z"></path>
        </symbol>
        <symbol id="icon-building" viewBox="0 0 32 32">
            <path d="M9.755 11.589h-9.892c-0.304 0-0.55 0.236-0.55 0.527v3.164c0 0.292 0.246 0.527 0.55 0.527h0.55v12.127c0 0.292 0.246 0.527 0.55 0.527h7.694c0.304 0 0.55-0.236 0.55-0.527v-12.127h0.55c0.304 0 0.55-0.236 0.55-0.527v-3.164c0-0.292-0.246-0.527-0.55-0.527zM3.71 21.607v-1.055h3.297v-1.055h-3.297v-1.055h4.396v6.854h-4.396v-2.636h1.099v-1.055h-1.099zM8.106 17.389h-4.946c-0.304 0-0.55 0.236-0.55 0.527v7.909c0 0.292 0.246 0.527 0.55 0.527h4.946v1.055h-6.595v-11.6h6.595v1.582zM9.205 14.753h-8.793v-2.109h8.793v2.109z"></path>
            <path d="M17.036 11.688v-3.855c0-0.3-0.246-0.543-0.55-0.543h-0.55v-2.714h1.099v-1.086h-6.045v1.086h3.847v2.714h-0.55c-0.304 0-0.55 0.243-0.55 0.543v3.855c-1.252 0.252-2.198 1.348-2.198 2.659v13.571c0 0.3 0.246 0.543 0.55 0.543h6.595c0.304 0 0.55-0.243 0.55-0.543v-13.571c0-1.31-0.946-2.407-2.198-2.659zM14.838 8.376h1.099v3.257h-1.099v-3.257zM14.289 12.719h2.198c0.909 0 1.649 0.731 1.649 1.629v0.543h-5.496v-0.543c0-0.898 0.74-1.629 1.649-1.629zM18.135 25.204h-5.496v-1.086h2.198v-1.086h-2.198v-7.057h5.496v9.228zM12.64 27.376v-1.086h5.496v1.086h-5.496z"></path>
            <path d="M31.084 10.914h-9.274c-0.285 0-0.515 0.238-0.515 0.532v16.484c0 0.294 0.23 0.532 0.515 0.532h9.274c0.285 0 0.515-0.238 0.515-0.532v-16.484c0-0.294-0.23-0.532-0.515-0.532zM30.569 27.398h-8.243v-15.42h8.243v15.42z"></path>
            <path d="M7.557 21.712h-1.374v0.675h1.374v-0.675z"></path>
            <path d="M17.174 23.062h-1.374v1.35h1.374v-1.35z"></path>
            <path d="M15.456 21.712c1.326 0 2.404-1.059 2.404-2.362s-1.078-2.362-2.404-2.362c-1.326 0-2.404 1.059-2.404 2.362s1.078 2.362 2.404 2.362zM15.456 18.169c0.663 0 1.202 0.53 1.202 1.181s-0.539 1.181-1.202 1.181c-0.663 0-1.202-0.53-1.202-1.181s0.539-1.181 1.202-1.181z"></path>
            <path d="M25.159 16.313h2.576c0.994 0 1.803-0.757 1.803-1.687s-0.809-1.687-1.803-1.687h-2.576c-0.994 0-1.803 0.757-1.803 1.687s0.809 1.687 1.803 1.687zM28.508 14.626c0 0.399-0.347 0.723-0.773 0.723h-0.773v-1.446h0.773c0.426 0 0.773 0.324 0.773 0.723zM25.159 13.903h0.773v1.446h-0.773c-0.426 0-0.773-0.324-0.773-0.723s0.347-0.723 0.773-0.723z"></path>
            <path d="M25.159 21.712h2.576c0.994 0 1.803-0.908 1.803-2.025s-0.809-2.025-1.803-2.025h-2.576c-0.994 0-1.803 0.908-1.803 2.025s0.809 2.025 1.803 2.025zM28.508 19.688c0 0.478-0.347 0.868-0.773 0.868h-0.773v-1.735h0.773c0.426 0 0.773 0.389 0.773 0.868zM25.159 18.82h0.773v1.735h-0.773c-0.426 0-0.773-0.389-0.773-0.868s0.347-0.868 0.773-0.868z"></path>
            <path d="M25.159 26.437h2.576c0.994 0 1.803-0.908 1.803-2.025s-0.809-2.025-1.803-2.025h-2.576c-0.994 0-1.803 0.908-1.803 2.025s0.809 2.025 1.803 2.025zM28.508 24.412c0 0.478-0.347 0.868-0.773 0.868h-0.773v-1.735h0.773c0.426 0 0.773 0.389 0.773 0.868zM25.159 23.544h0.773v1.735h-0.773c-0.426 0-0.773-0.389-0.773-0.868s0.347-0.868 0.773-0.868z"></path>
        </symbol>
        <symbol id="icon-number" viewBox="0 0 28 32">
            <path d="M25.655 22.957l-0.173-0.216c-1.372-1.735-2.519-2.637-3.503-2.756-0.851-0.116-1.673 0.472-2.548 1.077l-0.935 0.584c-0.112 0.056-0.223 0.101-0.327 0.132-0.547 0.155-1.927 0.245-2.708-0.469-0.909-0.832-2.32-2.355-3.417-3.685-1.048-1.377-2.2-3.095-2.801-4.176-0.508-0.916-0.083-2.197 0.201-2.672 0.056-0.093 0.129-0.185 0.211-0.276l0.824-0.761c0.012-0.012 0.017-0.027 0.028-0.037 0.008-0.008 0.021-0.005 0.031-0.012 0.744-0.628 1.513-1.275 1.619-2.105 0.124-0.976-0.483-2.296-1.857-4.029l-0.168-0.216c-0.851-1.091-2.137-2.74-3.985-2.468-0.727 0.108-1.376 0.356-2.045 0.776-0.007 0.004-0.011 0.012-0.016 0.016s-0.012 0.004-0.017 0.008l-0.932 0.691c-0.009 0.005-0.015 0.017-0.024 0.025-0.007 0.007-0.017 0.008-0.025 0.015-0.108 0.091-0.216 0.184-0.323 0.28-0.945 0.843-2.992 3.289-1.596 7.815 0.901 2.923 2.76 6.333 5.388 9.883l-0.025 0.021 1.449 1.805 0.012-0.009c2.849 3.371 5.749 5.976 8.407 7.553 1.773 1.053 3.323 1.401 4.597 1.401 1.677 0 2.879-0.603 3.481-0.995l0.379-0.253c0.043-0.029 0.073-0.071 0.104-0.108l0.825-0.621c0.009-0.008 0.015-0.019 0.024-0.027 0.004-0.004 0.011-0.003 0.016-0.007 0.587-0.536 0.993-1.097 1.276-1.763 0.732-1.705-0.579-3.339-1.445-4.42zM26.12 26.959c-0.22 0.517-0.541 0.957-1.005 1.384l-1.228 0.924c-1.112 0.723-3.489 1.616-6.943-0.435-2.657-1.577-5.583-4.244-8.461-7.712l-0.779-0.984c-2.711-3.595-4.617-7.037-5.517-9.955-1.169-3.793 0.304-5.828 1.291-6.707 0.1-0.091 0.2-0.175 0.299-0.259l0.004-0.004 0.895-0.663c0.544-0.344 1.048-0.536 1.628-0.624 1.239-0.187 2.247 1.12 2.987 2.069l0.173 0.22c1.536 1.937 1.684 2.859 1.636 3.235-0.053 0.417-0.688 0.952-1.248 1.423l-0.079 0.067c-0.003 0.003-0.004 0.007-0.007 0.009-0.004 0.003-0.008 0.004-0.012 0.007l-0.852 0.788c-0.005 0.005-0.008 0.012-0.013 0.019s-0.016 0.009-0.021 0.016c-0.132 0.148-0.245 0.296-0.337 0.449-0.479 0.801-0.931 2.457-0.217 3.739 0.623 1.12 1.808 2.889 2.897 4.319 1.139 1.381 2.591 2.949 3.532 3.809 0.705 0.644 1.687 0.86 2.536 0.86 0.455 0 0.872-0.063 1.188-0.152 0.167-0.048 0.339-0.117 0.516-0.204 0.011-0.005 0.016-0.015 0.027-0.021 0.005-0.003 0.013-0.001 0.019-0.005l0.989-0.619c0.032-0.021 0.053-0.049 0.080-0.076l0.012 0.013c0.609-0.423 1.304-0.919 1.739-0.847 0.385 0.047 1.26 0.417 2.799 2.36l0.177 0.223c0.749 0.935 1.776 2.215 1.297 3.333z"></path>
        </symbol>
        <symbol id="icon-crown" viewBox="0 0 32 32">
            <path d="M30.932 9.083c-0.276-0.25-0.609-0.41-0.963-0.463s-0.715 0.004-1.041 0.163l-6.886 3.36c-0.030 0.018-0.064 0.030-0.098 0.033s-0.069 0-0.102-0.011c-0.033-0.011-0.064-0.030-0.090-0.054s-0.048-0.054-0.064-0.088l-4.023-7.95c-0.163-0.329-0.404-0.603-0.696-0.794s-0.627-0.292-0.967-0.292c-0.34 0-0.674 0.101-0.967 0.292s-0.533 0.465-0.696 0.794l-4.023 7.95c-0.016 0.034-0.038 0.064-0.064 0.088s-0.057 0.043-0.090 0.054c-0.033 0.011-0.068 0.015-0.102 0.011s-0.068-0.015-0.098-0.033l-6.886-3.36c-0.325-0.162-0.686-0.221-1.040-0.169s-0.688 0.212-0.964 0.462c-0.276 0.25-0.482 0.58-0.595 0.953s-0.13 0.773-0.047 1.155l3.477 16.245c0.059 0.275 0.168 0.533 0.32 0.76s0.345 0.417 0.566 0.56c0.291 0.196 0.627 0.3 0.968 0.3 0.175-0.002 0.349-0.027 0.518-0.075 6.357-1.935 13.072-1.94 19.432-0.015 0.248 0.079 0.508 0.101 0.764 0.066s0.503-0.127 0.726-0.27 0.417-0.334 0.571-0.562c0.154-0.228 0.264-0.488 0.324-0.764l3.464-16.245c0.087-0.379 0.074-0.778-0.038-1.15s-0.316-0.701-0.59-0.95zM29.977 10.763l-3.477 16.245c-0.019 0.079-0.062 0.148-0.123 0.195-0.068 0.036-0.144 0.047-0.218 0.030-6.648-2.020-13.67-2.020-20.318 0-0.036 0.011-0.073 0.014-0.11 0.009s-0.072-0.019-0.104-0.040c-0.032-0.021-0.060-0.049-0.081-0.082s-0.037-0.071-0.045-0.111l-3.477-16.245c-0.008-0.045-0.007-0.091 0.003-0.135s0.029-0.086 0.054-0.121c0.026-0.036 0.059-0.065 0.096-0.085s0.078-0.032 0.119-0.033l0.109 0.030 6.9 3.375c0.435 0.216 0.928 0.243 1.381 0.076s0.831-0.515 1.060-0.976l4.023-7.95c0.021-0.047 0.055-0.087 0.095-0.115s0.088-0.043 0.136-0.043c0.048 0 0.095 0.015 0.136 0.043s0.074 0.068 0.096 0.115l4.023 7.95c0.229 0.46 0.608 0.809 1.060 0.976s0.946 0.14 1.381-0.076l6.9-3.375c0.047-0.023 0.098-0.031 0.149-0.023s0.098 0.031 0.137 0.068c0.040 0.035 0.070 0.082 0.087 0.135s0.020 0.11 0.009 0.165zM21.182 22.163c-0.023 0.222-0.119 0.426-0.27 0.575s-0.346 0.233-0.548 0.235h-0.082c-2.847-0.315-5.716-0.315-8.564 0-0.215 0.025-0.43-0.044-0.599-0.193s-0.277-0.365-0.301-0.602c-0.019-0.238 0.047-0.475 0.185-0.66s0.336-0.303 0.552-0.33c2.955-0.345 5.936-0.345 8.891 0 0.213 0.027 0.409 0.143 0.547 0.325s0.205 0.415 0.19 0.65z"></path>
        </symbol>
        <symbol id="icon-facebook" viewBox="0 0 32 32">
            <path d="M24.261 1.245c-1.484-0.157-2.976-0.234-4.468-0.23-4.948 0-8.023 3.151-8.023 8.224v3.444h-4.156c-0.195 0-0.382 0.077-0.52 0.215s-0.215 0.325-0.215 0.52v5.664c0 0.195 0.077 0.382 0.215 0.52s0.325 0.215 0.52 0.215h4.156v11.358c0 0.195 0.078 0.382 0.215 0.52s0.325 0.215 0.52 0.215h5.853c0.195 0 0.382-0.077 0.52-0.215s0.215-0.325 0.215-0.52v-11.358h4.143c0.179 0 0.351-0.065 0.485-0.183s0.221-0.28 0.244-0.457l0.731-5.664c0.014-0.104 0.005-0.209-0.026-0.31s-0.082-0.193-0.151-0.271c-0.069-0.079-0.154-0.142-0.25-0.185s-0.199-0.065-0.304-0.065h-4.874v-2.882c0-1.427 0.287-2.023 2.072-2.023h3c0.195 0 0.382-0.077 0.52-0.215s0.215-0.325 0.215-0.52v-5.069c0-0.179-0.065-0.351-0.183-0.485s-0.28-0.221-0.457-0.244zM23.43 6.306l-2.266 0.001c-3.174 0-3.541 1.995-3.541 3.494v3.619c0 0.195 0.077 0.382 0.215 0.52s0.324 0.216 0.519 0.216h4.776l-0.543 4.193h-4.231c-0.195 0-0.382 0.078-0.52 0.215s-0.215 0.325-0.215 0.52v11.355h-4.381v-11.355c0-0.195-0.078-0.382-0.215-0.52s-0.325-0.215-0.52-0.215h-4.155v-4.193h4.155c0.195 0 0.382-0.077 0.52-0.215s0.215-0.325 0.215-0.52v-4.181c0-4.228 2.45-6.753 6.552-6.753 1.484 0 2.825 0.081 3.637 0.152v3.668z"></path>
        </symbol>
        <symbol id="icon-instagram" viewBox="0 0 32 32">
            <path d="M16 8.923c-1.4 0-2.768 0.415-3.932 1.193s-2.071 1.883-2.607 3.176c-0.536 1.293-0.676 2.716-0.403 4.089s0.947 2.634 1.937 3.623c0.99 0.99 2.251 1.664 3.623 1.937s2.796 0.133 4.089-0.403c1.293-0.536 2.398-1.443 3.176-2.607s1.193-2.532 1.193-3.932c0-1.877-0.746-3.677-2.073-5.004s-3.127-2.073-5.004-2.073zM16 21.231c-1.035 0-2.046-0.307-2.906-0.882s-1.531-1.392-1.927-2.347-0.499-2.008-0.298-3.022c0.202-1.015 0.7-1.947 1.432-2.678s1.664-1.23 2.678-1.432c1.015-0.202 2.066-0.098 3.022 0.298s1.773 1.066 2.347 1.927c0.575 0.86 0.882 1.871 0.882 2.906-0.004 1.386-0.556 2.714-1.537 3.694s-2.308 1.532-3.694 1.537zM22.769 0.923h-13.538c-2.203 0-4.316 0.875-5.874 2.433s-2.433 3.671-2.433 5.874v13.538c0 2.203 0.875 4.316 2.433 5.874s3.671 2.433 5.874 2.433h13.538c2.203 0 4.316-0.875 5.874-2.433s2.433-3.671 2.433-5.874v-13.538c0-2.203-0.875-4.316-2.433-5.874s-3.671-2.433-5.874-2.433zM29.231 22.769c0 1.714-0.681 3.357-1.893 4.569s-2.855 1.893-4.569 1.893h-13.538c-1.714 0-3.357-0.681-4.569-1.893s-1.893-2.855-1.893-4.569v-13.538c0-1.714 0.681-3.357 1.893-4.569s2.855-1.893 4.569-1.893h13.538c1.714 0 3.357 0.681 4.569 1.893s1.893 2.855 1.893 4.569v13.538zM25.538 8c0 0.304-0.090 0.602-0.259 0.855s-0.409 0.45-0.69 0.567c-0.281 0.116-0.591 0.147-0.889 0.088s-0.573-0.206-0.788-0.421-0.362-0.489-0.421-0.788c-0.059-0.298-0.029-0.608 0.088-0.889s0.314-0.521 0.567-0.69c0.253-0.169 0.551-0.259 0.855-0.259 0.408 0 0.799 0.162 1.088 0.451s0.451 0.68 0.451 1.088z"></path>
        </symbol>
    </defs>
</svg>
